<svg width="18" height="20" viewBox="0 0 18 20" fill="none" xmlns="http://www.w3.org/2000/svg">
<path d="M0 1.70623C0 1.56376 0.0561921 1.42712 0.156215 1.32638C0.256237 1.22563 0.391897 1.16904 0.53335 1.16904H2.1334C2.25237 1.16907 2.36791 1.20917 2.46166 1.28295C2.5554 1.35673 2.62196 1.45996 2.65075 1.57623L3.08276 3.3178H15.4671C15.5455 3.31788 15.6228 3.33532 15.6937 3.36889C15.7645 3.40246 15.8272 3.45134 15.8772 3.51206C15.9272 3.57277 15.9633 3.64383 15.9829 3.72018C16.0026 3.79653 16.0053 3.87631 15.9909 3.95384L14.3908 12.5489C14.368 12.672 14.3031 12.7832 14.2075 12.8632C14.1118 12.9433 13.9914 12.9871 13.8671 12.9873H4.2668C4.14246 12.9871 4.02206 12.9433 3.92643 12.8632C3.83079 12.7832 3.76593 12.672 3.74305 12.5489L2.14407 3.96995L1.71739 2.24342H0.53335C0.391897 2.24342 0.256237 2.18682 0.156215 2.08608C0.0561921 1.98534 0 1.8487 0 1.70623ZM3.3089 4.39219L4.70948 11.9129H13.4244L14.825 4.39219H3.3089ZM5.3335 12.9873C4.76769 12.9873 4.22505 13.2136 3.82496 13.6166C3.42487 14.0196 3.2001 14.5661 3.2001 15.136C3.2001 15.7059 3.42487 16.2525 3.82496 16.6554C4.22505 17.0584 4.76769 17.2848 5.3335 17.2848C5.89931 17.2848 6.44195 17.0584 6.84204 16.6554C7.24213 16.2525 7.4669 15.7059 7.4669 15.136C7.4669 14.5661 7.24213 14.0196 6.84204 13.6166C6.44195 13.2136 5.89931 12.9873 5.3335 12.9873ZM12.8004 12.9873C12.2346 12.9873 11.6919 13.2136 11.2919 13.6166C10.8918 14.0196 10.667 14.5661 10.667 15.136C10.667 15.7059 10.8918 16.2525 11.2919 16.6554C11.6919 17.0584 12.2346 17.2848 12.8004 17.2848C13.3662 17.2848 13.9088 17.0584 14.3089 16.6554C14.709 16.2525 14.9338 15.7059 14.9338 15.136C14.9338 14.5661 14.709 14.0196 14.3089 13.6166C13.9088 13.2136 13.3662 12.9873 12.8004 12.9873ZM5.3335 14.0616C5.6164 14.0616 5.88772 14.1748 6.08777 14.3763C6.28781 14.5778 6.4002 14.8511 6.4002 15.136C6.4002 15.421 6.28781 15.6942 6.08777 15.8957C5.88772 16.0972 5.6164 16.2104 5.3335 16.2104C5.05059 16.2104 4.77927 16.0972 4.57923 15.8957C4.37918 15.6942 4.2668 15.421 4.2668 15.136C4.2668 14.8511 4.37918 14.5778 4.57923 14.3763C4.77927 14.1748 5.05059 14.0616 5.3335 14.0616ZM12.8004 14.0616C13.0833 14.0616 13.3546 14.1748 13.5547 14.3763C13.7547 14.5778 13.8671 14.8511 13.8671 15.136C13.8671 15.421 13.7547 15.6942 13.5547 15.8957C13.3546 16.0972 13.0833 16.2104 12.8004 16.2104C12.5175 16.2104 12.2462 16.0972 12.0461 15.8957C11.8461 15.6942 11.7337 15.421 11.7337 15.136C11.7337 14.8511 11.8461 14.5778 12.0461 14.3763C12.2462 14.1748 12.5175 14.0616 12.8004 14.0616Z" fill="white"/>
</svg>
