<svg width="15" height="15" viewBox="0 0 15 15" fill="none" xmlns="http://www.w3.org/2000/svg">
<path fill-rule="evenodd" clip-rule="evenodd" d="M4.40783 0.045C5.20761 0.00818181 5.46261 0 7.49988 0C9.53715 0 9.79215 0.00886363 10.5912 0.045C11.3903 0.0811364 11.9358 0.208636 12.4131 0.393409C12.9128 0.582273 13.3662 0.8775 13.7412 1.25932C14.1231 1.63364 14.4176 2.08636 14.6058 2.58682C14.7912 3.06409 14.9181 3.60955 14.9549 4.40727C14.9917 5.20841 14.9999 5.46341 14.9999 7.5C14.9999 9.53727 14.991 9.79227 14.9549 10.592C14.9187 11.3898 14.7912 11.9352 14.6058 12.4125C14.4176 12.913 14.1226 13.3665 13.7412 13.7414C13.3662 14.1232 12.9128 14.4177 12.4131 14.6059C11.9358 14.7914 11.3903 14.9182 10.5926 14.955C9.79215 14.9918 9.53715 15 7.49988 15C5.46261 15 5.20761 14.9911 4.40783 14.955C3.61011 14.9189 3.06465 14.7914 2.58738 14.6059C2.08687 14.4177 1.63339 14.1227 1.25851 13.7414C0.876955 13.3668 0.581683 12.9136 0.393287 12.4132C0.208514 11.9359 0.0816961 11.3905 0.0448779 10.5927C0.00805974 9.79159 -0.00012207 9.53659 -0.00012207 7.5C-0.00012207 5.46273 0.00874156 5.20773 0.0448779 4.40864C0.0810143 3.60955 0.208514 3.06409 0.393287 2.58682C0.581962 2.08642 0.877459 1.63317 1.2592 1.25864C1.63354 0.87716 2.08656 0.581893 2.5867 0.393409C3.06397 0.208636 3.60942 0.0818182 4.40715 0.045H4.40783ZM10.5306 1.395C9.73965 1.35886 9.50238 1.35136 7.49988 1.35136C5.49738 1.35136 5.26011 1.35886 4.4692 1.395C3.73761 1.42841 3.34079 1.55045 3.07624 1.65341C2.72647 1.78977 2.47624 1.95136 2.21374 2.21386C1.96491 2.45594 1.77341 2.75065 1.65329 3.07636C1.55033 3.34091 1.42829 3.73773 1.39488 4.46932C1.35874 5.26023 1.35124 5.4975 1.35124 7.5C1.35124 9.5025 1.35874 9.73977 1.39488 10.5307C1.42829 11.2623 1.55033 11.6591 1.65329 11.9236C1.77329 12.2489 1.96488 12.5441 2.21374 12.7861C2.45579 13.035 2.75101 13.2266 3.07624 13.3466C3.34079 13.4495 3.73761 13.5716 4.4692 13.605C5.26011 13.6411 5.4967 13.6486 7.49988 13.6486C9.50306 13.6486 9.73965 13.6411 10.5306 13.605C11.2622 13.5716 11.659 13.4495 11.9235 13.3466C12.2733 13.2102 12.5235 13.0486 12.786 12.7861C13.0349 12.5441 13.2265 12.2489 13.3465 11.9236C13.4494 11.6591 13.5715 11.2623 13.6049 10.5307C13.641 9.73977 13.6485 9.5025 13.6485 7.5C13.6485 5.4975 13.641 5.26023 13.6049 4.46932C13.5715 3.73773 13.4494 3.34091 13.3465 3.07636C13.2101 2.72659 13.0485 2.47636 12.786 2.21386C12.5439 1.96505 12.2492 1.77355 11.9235 1.65341C11.659 1.55045 11.2622 1.42841 10.5306 1.395ZM6.54192 9.81205C7.07692 10.0347 7.67264 10.0648 8.22733 9.89708C8.78202 9.72936 9.26128 9.37426 9.58325 8.89244C9.90522 8.41062 10.0499 7.83196 9.99264 7.2553C9.93536 6.67864 9.67965 6.13975 9.2692 5.73068C9.00754 5.46919 8.69116 5.26896 8.34283 5.14442C7.99451 5.01987 7.6229 4.97411 7.25476 5.01042C6.88662 5.04673 6.53112 5.16421 6.21384 5.35441C5.89655 5.5446 5.62539 5.80278 5.41986 6.11035C5.21433 6.41793 5.07955 6.76724 5.02523 7.13316C4.97091 7.49907 4.99839 7.87247 5.1057 8.22649C5.21301 8.5805 5.39748 8.90633 5.64582 9.18049C5.89417 9.45466 6.20021 9.67035 6.54192 9.81205ZM4.77397 4.77409C5.13194 4.41612 5.55691 4.13216 6.02463 3.93843C6.49234 3.7447 6.99363 3.64498 7.49988 3.64498C8.00613 3.64498 8.50742 3.7447 8.97513 3.93843C9.44284 4.13216 9.86782 4.41612 10.2258 4.77409C10.5838 5.13206 10.8677 5.55704 11.0615 6.02475C11.2552 6.49246 11.3549 6.99375 11.3549 7.5C11.3549 8.00625 11.2552 8.50754 11.0615 8.97525C10.8677 9.44296 10.5838 9.86794 10.2258 10.2259C9.50283 10.9489 8.52229 11.355 7.49988 11.355C6.47746 11.355 5.49692 10.9489 4.77397 10.2259C4.05101 9.50295 3.64486 8.52241 3.64486 7.5C3.64486 6.47759 4.05101 5.49705 4.77397 4.77409ZM12.2099 4.21909C12.2986 4.13541 12.3696 4.03478 12.4187 3.92316C12.4678 3.81155 12.4941 3.69121 12.4958 3.56927C12.4976 3.44734 12.4749 3.32628 12.4291 3.21328C12.3832 3.10028 12.3152 2.99762 12.2289 2.91139C12.1427 2.82516 12.0401 2.75711 11.9271 2.71126C11.8141 2.66542 11.693 2.64271 11.5711 2.64449C11.4491 2.64627 11.3288 2.67249 11.2172 2.72161C11.1056 2.77073 11.0049 2.84175 10.9212 2.93045C10.7585 3.10297 10.6694 3.33213 10.6729 3.56927C10.6763 3.80641 10.7721 4.03287 10.9398 4.20057C11.1075 4.36828 11.3339 4.46402 11.5711 4.46748C11.8082 4.47093 12.0374 4.38183 12.2099 4.21909Z" fill="#011C2A"/>
</svg>
